<?xml version="1.0" encoding="UTF-8" standalone="no"?>
<svg
   version="1.0"
   width="1280.000000pt"
   height="1280.000000pt"
   viewBox="0 0 1280.000000 1280.000000"
   preserveAspectRatio="xMidYMid meet"
   id="svg3"
   sodipodi:docname="rabbt.svg"
   inkscape:version="1.4.4 (dcaf3e7, 2026-05-05)"
   xmlns:inkscape="http://www.inkscape.org/namespaces/inkscape"
   xmlns:sodipodi="http://sodipodi.sourceforge.net/DTD/sodipodi-0.dtd"
   xmlns="http://www.w3.org/2000/svg"
   xmlns:svg="http://www.w3.org/2000/svg">
  <defs
     id="defs3" />
  <sodipodi:namedview
     id="namedview3"
     pagecolor="#FFFFFF"
     bordercolor="#FFFFFF"
     borderopacity="0.25"
     inkscape:showpageshadow="2"
     inkscape:pageopacity="0.0"
     inkscape:pagecheckerboard="0"
     inkscape:deskcolor="#d1d1d1"
     inkscape:document-units="pt"
     inkscape:zoom="0.14848108"
     inkscape:cx="356.94784"
     inkscape:cy="1478.3028"
     inkscape:window-width="1512"
     inkscape:window-height="842"
     inkscape:window-x="0"
     inkscape:window-y="33"
     inkscape:window-maximized="0"
     inkscape:current-layer="svg3" />
  <g
     transform="translate(0.000000,1280.000000) scale(0.100000,-0.100000)"
     fill="#FFFFFF"
     stroke="none"
     id="g3">
    <path
       d="M4065 11141 c-22 -4 -54 -15 -71 -24 -40 -21 -114 -89 -114 -105 0 -7 -4 -12 -9 -12 -13 0 -33 -118 -33 -195 1 -92 9 -142 97 -582 104 -522 147 -683 235 -883 48 -110 120 -246 162 -307 18 -26 24 -43 16 -43 -16 0 -947 352 -972 367 -6 4 -15 8 -21 9 -9 2 -298 118 -370 149 -16 7 -59 23 -95 35 -36 13 -69 26 -75 30 -5 4 -22 10 -37 14 -15 3 -40 11 -55 18 -15 6 -30 12 -33 12 -3 1 -25 9 -50 18 -97 35 -248 78 -313 89 -37 6 -114 10 -170 7 -110 -4 -141 -16 -202 -75 -28 -28 -71 -111 -81 -155 -22 -98 15 -237 116 -438 104 -209 166 -310 395 -650 291 -433 541 -785 665 -936 14 -17 32 -40 40 -50 56 -72 273 -329 315 -374 29 -30 111 -119 184 -197 258 -277 522 -504 781 -670 97 -62 237 -143 247 -143 3 0 27 -13 52 -28 111 -68 532 -243 666 -277 17 -5 35 -9 40 -11 78 -20 248 -36 460 -44 143 -5 280 -12 305 -14 87 -9 175 -20 183 -22 4 -1 14 -2 23 -3 11 -1 2 -18 -31 -60 -143 -187 -203 -357 -220 -626 -5 -88 -19 -220 -30 -280 -1 -11 -6 -45 -10 -75 -8 -56 -61 -279 -69 -287 -2 -3 -19 4 -38 13 -18 10 -35 18 -38 19 -3 0 -30 12 -60 26 -30 14 -84 39 -120 54 -36 15 -108 48 -160 73 -52 25 -97 47 -100 47 -36 10 -424 188 -431 198 -3 5 -9 8 -13 8 -3 -1 -22 6 -42 14 -20 8 -40 15 -45 15 -5 0 -9 5 -9 10 0 6 -6 10 -14 10 -16 0 -212 87 -270 119 -20 12 -36 19 -36 16 0 -3 -17 4 -37 14 -21 10 -121 56 -223 102 -102 46 -188 87 -191 92 -3 5 -10 9 -15 9 -5 0 -24 6 -43 14 -18 8 -37 14 -42 14 -5 0 -9 5 -9 10 0 6 -6 10 -14 10 -16 0 -212 87 -270 119 -20 12 -36 18 -36 15 0 -3 -12 2 -27 10 -16 8 -149 70 -298 137 -148 67 -281 127 -295 134 -24 13 -39 19 -140 63 -25 11 -74 33 -110 50 -36 17 -162 74 -280 127 -118 54 -219 101 -225 105 -5 4 -21 11 -34 15 -13 4 -71 30 -130 58 -58 27 -110 51 -116 52 -5 2 -50 22 -100 45 -118 54 -146 67 -430 195 -132 60 -256 116 -275 127 -19 10 -38 18 -42 18 -4 0 -55 23 -113 51 -59 28 -109 49 -111 46 -5 -4 482 -247 496 -247 5 0 10 -5 10 -12 0 -6 3 -9 6 -5 8 7 146 -61 156 -77 4 -6 8 -8 8 -3 0 4 174 -80 387 -186 214 -106 856 -425 1428 -708 572 -282 1043 -518 1047 -524 4 -5 8 -7 8 -2 0 9 122 -52 131 -65 3 -5 8 -9 10 -7 9 5 49 -13 49 -22 0 -6 4 -7 10 -4 6 3 10 1 10 -6 0 -7 3 -10 6 -6 3 3 175 -79 382 -182 208 -103 392 -194 410 -201 17 -7 32 -17 32 -22 0 -5 4 -7 9 -3 5 3 17 -2 25 -11 9 -8 16 -13 16 -10 0 7 102 -42 110 -53 3 -3 10 -7 15 -8 15 -2 1828 -901 1843 -913 6 -6 12 -8 12 -5 0 8 144 -66 152 -79 4 -6 8 -8 8 -4 0 4 174 -80 388 -186 213 -107 411 -204 440 -216 28 -12 52 -27 52 -33 0 -6 3 -8 6 -4 3 3 214 -98 468 -226 253 -127 463 -232 466 -232 20 -2 150 -70 150 -78 0 -6 3 -7 6 -4 4 4 19 0 33 -8 14 -8 64 -33 111 -55 70 -34 80 -37 55 -16 -16 14 -34 25 -39 26 -12 0 -130 72 -134 82 -2 4 -8 8 -14 8 -6 0 -59 30 -120 67 -60 38 -139 85 -176 106 -36 21 -73 44 -82 52 -9 8 -20 15 -23 15 -7 0 -188 110 -197 120 -6 6 -34 24 -74 46 -75 42 -228 147 -233 161 -14 37 58 42 243 18 108 -15 153 -14 108 1 -10 3 -81 33 -156 66 l-136 61 -21 66 c-30 97 -44 196 -37 259 7 58 36 134 55 146 11 7 203 20 476 31 386 15 459 37 729 218 224 150 277 202 363 355 34 60 147 307 158 342 1 3 14 43 30 90 20 62 28 105 28 160 1 90 -20 137 -118 270 -109 146 -173 257 -301 518 -69 140 -143 282 -166 315 -109 162 -277 334 -460 471 -57 43 -111 84 -121 92 -9 8 -19 14 -22 14 -3 0 -28 15 -57 34 -30 18 -87 51 -128 72 -41 20 -77 40 -80 43 -7 8 -74 33 -241 91 -75 26 -142 50 -148 54 -6 4 -11 5 -11 2 0 -2 -15 0 -32 5 -68 20 -100 22 -362 23 l-270 1 -43 90 c-58 121 -120 314 -188 585 -106 421 -150 560 -240 745 -134 276 -344 549 -723 938 -109 111 -245 235 -412 376 -41 35 -86 73 -100 85 -14 11 -41 32 -61 46 -20 14 -50 35 -65 47 -56 44 -390 289 -436 321 -25 17 -53 38 -60 44 -7 7 -29 24 -48 38 -41 29 -29 19 -160 122 -58 45 -109 85 -115 90 -5 4 -23 19 -40 34 -16 15 -41 34 -55 42 -23 15 -108 80 -120 92 -3 3 -24 18 -47 34 -24 16 -43 33 -43 37 0 5 -5 9 -11 9 -6 0 -32 16 -57 36 -26 19 -106 79 -177 132 -147 109 -152 113 -354 272 -293 232 -325 252 -432 270 -70 11 -75 11 -134 1z m360 -587 c113 -60 258 -164 525 -379 156 -124 288 -232 295 -238 7 -7 104 -83 216 -169 299 -230 727 -568 779 -614 14 -12 84 -72 155 -135 113 -98 221 -198 329 -304 63 -61 183 -193 237 -261 49 -60 74 -95 160 -225 9 -14 44 -77 77 -140 104 -197 195 -435 314 -824 79 -260 112 -350 192 -523 31 -67 59 -135 62 -152 6 -26 3 -31 -22 -41 -28 -10 -42 -9 -151 16 -50 11 -172 60 -248 98 -249 124 -386 279 -684 772 -40 66 -102 163 -139 215 -78 110 -262 300 -377 389 -44 35 -87 68 -95 74 -8 7 -32 21 -53 32 -20 11 -37 23 -37 27 0 5 -4 8 -10 8 -5 0 -62 30 -127 66 -153 86 -338 179 -488 244 -66 28 -133 57 -150 65 -16 7 -70 27 -120 45 -142 52 -180 74 -223 133 -145 194 -262 531 -452 1299 -97 390 -119 520 -90 538 27 17 74 11 125 -16z m-1890 -1249 c50 -14 100 -28 112 -30 28 -7 149 -50 200 -72 21 -9 43 -17 48 -19 6 -1 165 -61 355 -134 327 -126 418 -159 880 -320 289 -101 471 -166 505 -181 17 -6 35 -13 40 -15 6 -1 78 -26 160 -54 218 -75 639 -285 749 -373 14 -12 58 -47 96 -77 158 -124 466 -461 690 -754 224 -293 286 -372 407 -517 179 -213 264 -289 413 -365 89 -45 148 -68 250 -95 115 -30 134 -32 290 -32 118 0 181 6 335 33 218 38 475 51 580 30 33 -6 73 -14 89 -17 101 -17 411 -150 509 -217 21 -14 40 -26 43 -26 11 0 124 -83 124 -91 0 -5 6 -9 14 -9 24 0 201 -182 250 -257 26 -40 91 -158 146 -262 135 -258 198 -355 306 -471 28 -30 87 -94 132 -142 94 -101 105 -132 77 -216 -12 -40 -111 -81 -195 -82 -44 0 -110 -18 -110 -30 0 -5 26 -27 58 -49 69 -49 103 -96 109 -153 5 -39 1 -47 -36 -89 -23 -26 -59 -54 -82 -63 -25 -10 -122 -25 -237 -37 -221 -22 -318 -36 -341 -49 -12 -7 -9 -10 14 -10 17 0 64 -3 105 -6 197 -13 222 -21 205 -70 -20 -57 -269 -165 -425 -184 -41 -5 -230 -9 -420 -10 -374 -1 -358 2 -423 -59 -122 -112 -109 -362 28 -553 19 -26 35 -50 35 -53 0 -4 -70 26 -190 83 -36 16 -130 59 -210 95 -80 36 -185 84 -233 106 -49 23 -92 41 -98 41 -5 0 -9 5 -9 10 0 6 -3 9 -7 8 -5 0 -17 3 -28 7 -38 16 -217 96 -288 129 -40 19 -189 87 -332 151 -143 65 -273 124 -290 133 -16 9 -34 17 -40 18 -5 1 -54 22 -108 47 -53 26 -100 46 -102 46 -3 0 -22 9 -43 20 -20 10 -57 28 -82 39 -214 96 -369 166 -390 177 -14 7 -38 18 -53 24 l-28 11 54 63 c73 87 129 164 151 212 18 40 54 137 61 165 2 8 15 62 30 120 14 58 28 123 31 145 35 239 186 491 339 565 44 21 52 22 104 11 31 -7 93 -15 138 -18 72 -4 84 -3 89 12 16 41 -80 171 -180 244 -106 78 -226 110 -741 196 -148 25 -288 47 -310 50 -106 14 -183 27 -210 35 -16 5 -50 12 -75 15 -61 8 -199 45 -232 62 -16 7 -28 10 -28 6 0 -4 -5 -2 -12 5 -7 7 -18 12 -25 12 -7 0 -37 11 -68 25 -30 13 -58 24 -60 25 -17 2 -379 194 -405 214 -8 7 -32 21 -52 31 -21 11 -38 23 -38 27 0 5 -5 8 -10 8 -11 0 -131 78 -206 134 -23 17 -52 38 -64 46 -172 115 -472 390 -754 690 -220 236 -498 619 -751 1035 -26 44 -56 89 -65 100 -37 43 -405 583 -436 640 -18 33 -36 77 -39 97 -6 31 -3 41 19 62 33 34 74 34 191 1z"
       id="path1" />
    <path
       d="M3370 8564 c-91 -37 -124 -78 -121 -152 3 -99 126 -336 222 -432 67 -67 83 -77 340 -199 152 -72 230 -135 333 -266 47 -60 91 -121 98 -135 24 -48 115 -196 181 -296 123 -185 279 -311 567 -452 85 -42 160 -77 165 -78 6 -1 48 -16 95 -33 93 -35 329 -105 510 -152 63 -17 118 -33 122 -35 4 -3 18 -7 29 -9 31 -6 102 -27 343 -101 248 -77 233 -73 316 -80 81 -7 127 14 153 67 16 33 16 41 3 78 -29 87 -121 216 -441 626 -269 344 -485 586 -650 725 -27 24 -57 49 -65 56 -100 91 -417 311 -590 410 -47 27 -87 51 -90 54 -3 3 -39 21 -80 40 -41 19 -78 39 -81 43 -3 5 -8 8 -10 6 -2 -1 -51 16 -109 39 -58 22 -161 59 -230 82 -69 23 -132 44 -140 47 -8 4 -19 7 -25 9 -5 1 -82 20 -170 42 -88 23 -203 51 -255 62 -52 12 -104 24 -115 27 -31 8 -288 13 -305 7z"
       id="path2" />
    <path
       d="M9000 5715 c-167 -47 -313 -212 -342 -388 -13 -78 1 -205 28 -262 22 -47 143 -159 204 -190 42 -21 63 -25 142 -25 91 0 95 1 163 41 101 59 171 135 224 244 31 65 34 79 39 191 l5 121 -34 68 c-32 65 -65 106 -120 150 -14 11 -30 21 -35 22 -5 1 -29 10 -53 18 -66 24 -157 27 -221 10z m107 -224 c44 -21 123 -110 123 -141 0 -16 -5 -16 -62 8 -81 33 -178 41 -213 18 -43 -28 -65 -75 -65 -138 0 -50 4 -62 31 -93 67 -76 133 -87 230 -37 34 18 64 31 66 29 1 -2 -14 -23 -34 -47 -66 -76 -177 -110 -256 -76 -48 20 -105 84 -123 138 -18 56 -12 163 13 215 20 43 74 90 137 119 61 29 97 30 153 5z"
       id="path3" />
  </g>
</svg>
